<mxfile host="app.diagrams.net" modified="2023-08-15T11:53:01.849Z" agent="Mozilla/5.0 (Windows NT 10.0; Win64; x64; rv:109.0) Gecko/20100101 Firefox/113.0" etag="U8CAMlmNQVDvzKyXOcia" version="21.6.8" type="google">
  <diagram name="Page-1" id="ytOmXRRQYeQloyjIiEMX">
    <mxGraphModel grid="1" page="1" gridSize="10" guides="1" tooltips="1" connect="1" arrows="1" fold="1" pageScale="1" pageWidth="827" pageHeight="1169" math="0" shadow="0">
      <root>
        <mxCell id="0" />
        <mxCell id="1" parent="0" />
        <mxCell id="_wDPgsUxaL8DNHtvxFUJ-1" value="" style="rounded=0;whiteSpace=wrap;html=1;fontStyle=1;fillColor=#b1ddf0;strokeColor=#10739e;" vertex="1" parent="1">
          <mxGeometry x="360" y="1230" width="140" height="100" as="geometry" />
        </mxCell>
        <mxCell id="_wDPgsUxaL8DNHtvxFUJ-5" value="" style="ellipse;whiteSpace=wrap;html=1;aspect=fixed;" vertex="1" parent="1">
          <mxGeometry x="325" y="1153" width="10" height="10" as="geometry" />
        </mxCell>
        <mxCell id="_wDPgsUxaL8DNHtvxFUJ-6" value="" style="ellipse;whiteSpace=wrap;html=1;aspect=fixed;" vertex="1" parent="1">
          <mxGeometry x="385" y="1133" width="10" height="10" as="geometry" />
        </mxCell>
        <mxCell id="_wDPgsUxaL8DNHtvxFUJ-7" value="" style="ellipse;whiteSpace=wrap;html=1;aspect=fixed;" vertex="1" parent="1">
          <mxGeometry x="429" y="1143" width="10" height="10" as="geometry" />
        </mxCell>
        <mxCell id="_wDPgsUxaL8DNHtvxFUJ-12" value="" style="endArrow=none;html=1;rounded=0;exitX=0.5;exitY=0;exitDx=0;exitDy=0;entryX=1;entryY=1;entryDx=0;entryDy=0;" edge="1" parent="1" source="_wDPgsUxaL8DNHtvxFUJ-21" target="_wDPgsUxaL8DNHtvxFUJ-6">
          <mxGeometry width="50" height="50" relative="1" as="geometry">
            <mxPoint x="419" y="1183" as="sourcePoint" />
            <mxPoint x="395" y="1153" as="targetPoint" />
          </mxGeometry>
        </mxCell>
        <mxCell id="_wDPgsUxaL8DNHtvxFUJ-13" value="" style="endArrow=none;html=1;rounded=0;entryX=0.5;entryY=1;entryDx=0;entryDy=0;exitX=0.5;exitY=0;exitDx=0;exitDy=0;" edge="1" parent="1" source="_wDPgsUxaL8DNHtvxFUJ-8" target="_wDPgsUxaL8DNHtvxFUJ-6">
          <mxGeometry width="50" height="50" relative="1" as="geometry">
            <mxPoint x="375" y="1183" as="sourcePoint" />
            <mxPoint x="429" y="1133" as="targetPoint" />
          </mxGeometry>
        </mxCell>
        <mxCell id="_wDPgsUxaL8DNHtvxFUJ-14" value="" style="endArrow=none;html=1;rounded=0;entryX=1;entryY=1;entryDx=0;entryDy=0;exitX=0.5;exitY=0;exitDx=0;exitDy=0;" edge="1" parent="1" source="_wDPgsUxaL8DNHtvxFUJ-8" target="_wDPgsUxaL8DNHtvxFUJ-5">
          <mxGeometry width="50" height="50" relative="1" as="geometry">
            <mxPoint x="375" y="1183" as="sourcePoint" />
            <mxPoint x="455" y="1143" as="targetPoint" />
          </mxGeometry>
        </mxCell>
        <mxCell id="_wDPgsUxaL8DNHtvxFUJ-15" value="" style="endArrow=none;html=1;rounded=0;exitX=0.5;exitY=0;exitDx=0;exitDy=0;entryX=0.5;entryY=1;entryDx=0;entryDy=0;" edge="1" parent="1" target="_wDPgsUxaL8DNHtvxFUJ-7">
          <mxGeometry width="50" height="50" relative="1" as="geometry">
            <mxPoint x="459" y="1085.5" as="sourcePoint" />
            <mxPoint x="455" y="1143" as="targetPoint" />
          </mxGeometry>
        </mxCell>
        <mxCell id="_wDPgsUxaL8DNHtvxFUJ-16" value="" style="endArrow=none;html=1;rounded=0;exitX=0;exitY=0.146;exitDx=0;exitDy=0;exitPerimeter=0;" edge="1" parent="1" source="_wDPgsUxaL8DNHtvxFUJ-8">
          <mxGeometry width="50" height="50" relative="1" as="geometry">
            <mxPoint x="409" y="1193" as="sourcePoint" />
            <mxPoint x="375" y="1184" as="targetPoint" />
            <Array as="points" />
          </mxGeometry>
        </mxCell>
        <mxCell id="_wDPgsUxaL8DNHtvxFUJ-21" value="" style="ellipse;whiteSpace=wrap;html=1;aspect=fixed;" vertex="1" parent="1">
          <mxGeometry x="409" y="1183" width="10" height="10" as="geometry" />
        </mxCell>
        <mxCell id="_wDPgsUxaL8DNHtvxFUJ-22" value="" style="endArrow=none;html=1;rounded=0;exitX=0;exitY=0.146;exitDx=0;exitDy=0;exitPerimeter=0;" edge="1" parent="1" source="_wDPgsUxaL8DNHtvxFUJ-21" target="_wDPgsUxaL8DNHtvxFUJ-8">
          <mxGeometry width="50" height="50" relative="1" as="geometry">
            <mxPoint x="409" y="1184" as="sourcePoint" />
            <mxPoint x="375" y="1184" as="targetPoint" />
            <Array as="points" />
          </mxGeometry>
        </mxCell>
        <mxCell id="_wDPgsUxaL8DNHtvxFUJ-8" value="" style="ellipse;whiteSpace=wrap;html=1;aspect=fixed;" vertex="1" parent="1">
          <mxGeometry x="375" y="1183" width="10" height="10" as="geometry" />
        </mxCell>
        <mxCell id="_wDPgsUxaL8DNHtvxFUJ-56" value="" style="shape=table;startSize=0;container=1;collapsible=0;childLayout=tableLayout;fontSize=16;fontStyle=1;fillColor=#b1ddf0;strokeColor=#10739e;" vertex="1" parent="1">
          <mxGeometry x="233" y="760" width="181" height="40" as="geometry" />
        </mxCell>
        <mxCell id="_wDPgsUxaL8DNHtvxFUJ-57" value="" style="shape=tableRow;horizontal=0;startSize=0;swimlaneHead=0;swimlaneBody=0;strokeColor=inherit;top=0;left=0;bottom=0;right=0;collapsible=0;dropTarget=0;fillColor=none;points=[[0,0.5],[1,0.5]];portConstraint=eastwest;fontSize=16;" vertex="1" parent="_wDPgsUxaL8DNHtvxFUJ-56">
          <mxGeometry width="181" height="40" as="geometry" />
        </mxCell>
        <mxCell id="_wDPgsUxaL8DNHtvxFUJ-58" value="V1" style="shape=partialRectangle;html=1;whiteSpace=wrap;connectable=0;strokeColor=inherit;overflow=hidden;fillColor=none;top=0;left=0;bottom=0;right=0;pointerEvents=1;fontSize=16;fontStyle=1" vertex="1" parent="_wDPgsUxaL8DNHtvxFUJ-57">
          <mxGeometry width="60" height="40" as="geometry">
            <mxRectangle width="60" height="40" as="alternateBounds" />
          </mxGeometry>
        </mxCell>
        <mxCell id="_wDPgsUxaL8DNHtvxFUJ-59" value="V2" style="shape=partialRectangle;html=1;whiteSpace=wrap;connectable=0;strokeColor=inherit;overflow=hidden;fillColor=none;top=0;left=0;bottom=0;right=0;pointerEvents=1;fontSize=16;fontStyle=1" vertex="1" parent="_wDPgsUxaL8DNHtvxFUJ-57">
          <mxGeometry x="60" width="61" height="40" as="geometry">
            <mxRectangle width="61" height="40" as="alternateBounds" />
          </mxGeometry>
        </mxCell>
        <mxCell id="_wDPgsUxaL8DNHtvxFUJ-60" value="V3" style="shape=partialRectangle;html=1;whiteSpace=wrap;connectable=0;strokeColor=inherit;overflow=hidden;fillColor=none;top=0;left=0;bottom=0;right=0;pointerEvents=1;fontSize=16;fontStyle=1" vertex="1" parent="_wDPgsUxaL8DNHtvxFUJ-57">
          <mxGeometry x="121" width="60" height="40" as="geometry">
            <mxRectangle width="60" height="40" as="alternateBounds" />
          </mxGeometry>
        </mxCell>
        <mxCell id="_wDPgsUxaL8DNHtvxFUJ-69" value="" style="shape=table;startSize=0;container=1;collapsible=0;childLayout=tableLayout;fontSize=16;fontStyle=1;fillColor=#b1ddf0;strokeColor=#10739e;" vertex="1" parent="1">
          <mxGeometry x="414" y="760" width="181" height="40" as="geometry" />
        </mxCell>
        <mxCell id="_wDPgsUxaL8DNHtvxFUJ-70" value="" style="shape=tableRow;horizontal=0;startSize=0;swimlaneHead=0;swimlaneBody=0;strokeColor=inherit;top=0;left=0;bottom=0;right=0;collapsible=0;dropTarget=0;fillColor=none;points=[[0,0.5],[1,0.5]];portConstraint=eastwest;fontSize=16;" vertex="1" parent="_wDPgsUxaL8DNHtvxFUJ-69">
          <mxGeometry width="181" height="40" as="geometry" />
        </mxCell>
        <mxCell id="_wDPgsUxaL8DNHtvxFUJ-71" value="V4" style="shape=partialRectangle;html=1;whiteSpace=wrap;connectable=0;strokeColor=inherit;overflow=hidden;fillColor=none;top=0;left=0;bottom=0;right=0;pointerEvents=1;fontSize=16;fontStyle=1" vertex="1" parent="_wDPgsUxaL8DNHtvxFUJ-70">
          <mxGeometry width="56" height="40" as="geometry">
            <mxRectangle width="56" height="40" as="alternateBounds" />
          </mxGeometry>
        </mxCell>
        <mxCell id="_wDPgsUxaL8DNHtvxFUJ-72" value="............" style="shape=partialRectangle;html=1;whiteSpace=wrap;connectable=0;strokeColor=inherit;overflow=hidden;fillColor=none;top=0;left=0;bottom=0;right=0;pointerEvents=1;fontSize=16;" vertex="1" parent="_wDPgsUxaL8DNHtvxFUJ-70">
          <mxGeometry x="56" width="65" height="40" as="geometry">
            <mxRectangle width="65" height="40" as="alternateBounds" />
          </mxGeometry>
        </mxCell>
        <mxCell id="_wDPgsUxaL8DNHtvxFUJ-73" value="V128" style="shape=partialRectangle;html=1;whiteSpace=wrap;connectable=0;strokeColor=inherit;overflow=hidden;fillColor=none;top=0;left=0;bottom=0;right=0;pointerEvents=1;fontSize=16;fontStyle=1" vertex="1" parent="_wDPgsUxaL8DNHtvxFUJ-70">
          <mxGeometry x="121" width="60" height="40" as="geometry">
            <mxRectangle width="60" height="40" as="alternateBounds" />
          </mxGeometry>
        </mxCell>
        <mxCell id="_wDPgsUxaL8DNHtvxFUJ-82" value="&lt;font face=&quot;Times New Roman&quot;&gt;Labels Extraction&lt;/font&gt;" style="rounded=0;whiteSpace=wrap;html=1;fillColor=#b0e3e6;strokeColor=#0e8088;fontStyle=1" vertex="1" parent="1">
          <mxGeometry x="60" y="780" width="120" height="55" as="geometry" />
        </mxCell>
        <mxCell id="_wDPgsUxaL8DNHtvxFUJ-83" value="" style="shape=orEllipse;perimeter=ellipsePerimeter;whiteSpace=wrap;html=1;backgroundOutline=1;" vertex="1" parent="1">
          <mxGeometry x="320" y="530" width="30" height="25" as="geometry" />
        </mxCell>
        <mxCell id="_wDPgsUxaL8DNHtvxFUJ-97" value="&lt;font face=&quot;Times New Roman&quot;&gt;&amp;nbsp;&amp;nbsp;&amp;nbsp;&amp;nbsp;&amp;nbsp;&amp;nbsp; Dataset&lt;/font&gt;" style="text;strokeColor=none;fillColor=none;align=left;verticalAlign=middle;spacingLeft=4;spacingRight=4;overflow=hidden;points=[[0,0.5],[1,0.5]];portConstraint=eastwest;rotatable=0;whiteSpace=wrap;html=1;fontStyle=1" vertex="1" parent="1">
          <mxGeometry x="382.5" y="1340" width="95" height="30" as="geometry" />
        </mxCell>
        <mxCell id="_wDPgsUxaL8DNHtvxFUJ-99" value="" style="endArrow=none;html=1;rounded=0;exitX=0.5;exitY=0;exitDx=0;exitDy=0;entryX=0.5;entryY=1;entryDx=0;entryDy=0;" edge="1" parent="1" source="_wDPgsUxaL8DNHtvxFUJ-21" target="_wDPgsUxaL8DNHtvxFUJ-2">
          <mxGeometry width="50" height="50" relative="1" as="geometry">
            <mxPoint x="414" y="1182" as="sourcePoint" />
            <mxPoint x="434" y="1152" as="targetPoint" />
          </mxGeometry>
        </mxCell>
        <mxCell id="_wDPgsUxaL8DNHtvxFUJ-2" value="" style="whiteSpace=wrap;html=1;rounded=0;fillColor=#b1ddf0;strokeColor=#10739e;" vertex="1" parent="1">
          <mxGeometry x="310" y="1068" width="240" height="125" as="geometry" />
        </mxCell>
        <mxCell id="_wDPgsUxaL8DNHtvxFUJ-101" value="" style="endArrow=classic;html=1;rounded=0;entryX=0.5;entryY=1;entryDx=0;entryDy=0;" edge="1" parent="1" target="_wDPgsUxaL8DNHtvxFUJ-42">
          <mxGeometry width="50" height="50" relative="1" as="geometry">
            <mxPoint x="400" y="880" as="sourcePoint" />
            <mxPoint x="454" y="830" as="targetPoint" />
          </mxGeometry>
        </mxCell>
        <mxCell id="_wDPgsUxaL8DNHtvxFUJ-42" value="" style="rounded=1;absoluteArcSize=1;html=1;arcSize=10;fillColor=#b1ddf0;strokeColor=#10739e;" vertex="1" parent="1">
          <mxGeometry x="229" y="830" width="380" height="180" as="geometry" />
        </mxCell>
        <mxCell id="_wDPgsUxaL8DNHtvxFUJ-43" value="&lt;font face=&quot;Times New Roman&quot;&gt;Node2Vec&lt;/font&gt;" style="html=1;shape=mxgraph.er.anchor;whiteSpace=wrap;fontStyle=1" vertex="1" parent="_wDPgsUxaL8DNHtvxFUJ-42">
          <mxGeometry x="8.636363636363635" y="144" width="362.7272727272727" height="23.999999999999996" as="geometry" />
        </mxCell>
        <mxCell id="_wDPgsUxaL8DNHtvxFUJ-44" value="" style="rounded=1;absoluteArcSize=1;html=1;arcSize=10;whiteSpace=wrap;points=[];" vertex="1" parent="_wDPgsUxaL8DNHtvxFUJ-42">
          <mxGeometry x="51.81818181818182" y="34.285714285714285" width="267.7272727272727" height="111.42857142857143" as="geometry" />
        </mxCell>
        <mxCell id="_wDPgsUxaL8DNHtvxFUJ-51" value="&lt;font face=&quot;Times New Roman&quot;&gt;Random Walk&lt;/font&gt;" style="rounded=0;whiteSpace=wrap;html=1;fillColor=#b0e3e6;strokeColor=#0e8088;fontStyle=1" vertex="1" parent="_wDPgsUxaL8DNHtvxFUJ-42">
          <mxGeometry x="112.27090909090907" y="77.72363636363636" width="155.45454545454544" height="24.545454545454547" as="geometry" />
        </mxCell>
        <mxCell id="_wDPgsUxaL8DNHtvxFUJ-127" value="" style="edgeStyle=elbowEdgeStyle;elbow=horizontal;endArrow=classic;html=1;curved=0;rounded=0;endSize=8;startSize=8;entryX=0;entryY=0.5;entryDx=0;entryDy=0;" edge="1" parent="1" target="_wDPgsUxaL8DNHtvxFUJ-83">
          <mxGeometry width="50" height="50" relative="1" as="geometry">
            <mxPoint x="95" y="780" as="sourcePoint" />
            <mxPoint x="145" y="540" as="targetPoint" />
            <Array as="points">
              <mxPoint x="120" y="560" />
              <mxPoint x="120" y="650" />
            </Array>
          </mxGeometry>
        </mxCell>
        <mxCell id="hiY1fiGg45ZoWTmRtjc3-1" value="" style="edgeStyle=orthogonalEdgeStyle;rounded=0;orthogonalLoop=1;jettySize=auto;html=1;" edge="1" parent="1" source="_wDPgsUxaL8DNHtvxFUJ-128" target="_wDPgsUxaL8DNHtvxFUJ-132">
          <mxGeometry relative="1" as="geometry">
            <Array as="points">
              <mxPoint x="334" y="450" />
              <mxPoint x="330" y="450" />
            </Array>
          </mxGeometry>
        </mxCell>
        <mxCell id="_wDPgsUxaL8DNHtvxFUJ-128" value="&lt;font face=&quot;Times New Roman&quot;&gt;Merged FILE&lt;/font&gt;" style="rounded=0;whiteSpace=wrap;html=1;fillColor=#b1ddf0;strokeColor=#10739e;fontStyle=1" vertex="1" parent="1">
          <mxGeometry x="274" y="470" width="120" height="30" as="geometry" />
        </mxCell>
        <mxCell id="_wDPgsUxaL8DNHtvxFUJ-131" value="" style="endArrow=classic;html=1;rounded=0;exitX=0.5;exitY=0;exitDx=0;exitDy=0;entryX=0.5;entryY=1;entryDx=0;entryDy=0;" edge="1" parent="1" source="_wDPgsUxaL8DNHtvxFUJ-83" target="_wDPgsUxaL8DNHtvxFUJ-128">
          <mxGeometry width="50" height="50" relative="1" as="geometry">
            <mxPoint x="370" y="530" as="sourcePoint" />
            <mxPoint x="430" y="600" as="targetPoint" />
          </mxGeometry>
        </mxCell>
        <mxCell id="_wDPgsUxaL8DNHtvxFUJ-132" value="&lt;font face=&quot;Times New Roman&quot;&gt;&amp;nbsp; &lt;br&gt;&lt;/font&gt;" style="rounded=0;whiteSpace=wrap;html=1;fillColor=#b1ddf0;strokeColor=#10739e;fontStyle=1" vertex="1" parent="1">
          <mxGeometry x="210" y="220" width="260" height="230" as="geometry" />
        </mxCell>
        <mxCell id="_wDPgsUxaL8DNHtvxFUJ-134" value="" style="ellipse;whiteSpace=wrap;html=1;aspect=fixed;" vertex="1" parent="1">
          <mxGeometry x="375" y="1093" width="10" height="10" as="geometry" />
        </mxCell>
        <mxCell id="_wDPgsUxaL8DNHtvxFUJ-136" value="" style="ellipse;whiteSpace=wrap;html=1;aspect=fixed;" vertex="1" parent="1">
          <mxGeometry x="335" y="1123" width="10" height="10" as="geometry" />
        </mxCell>
        <mxCell id="_wDPgsUxaL8DNHtvxFUJ-137" value="" style="ellipse;whiteSpace=wrap;html=1;aspect=fixed;" vertex="1" parent="1">
          <mxGeometry x="385" y="1133" width="10" height="10" as="geometry" />
        </mxCell>
        <mxCell id="_wDPgsUxaL8DNHtvxFUJ-138" value="" style="ellipse;whiteSpace=wrap;html=1;aspect=fixed;" vertex="1" parent="1">
          <mxGeometry x="434" y="1113" width="10" height="10" as="geometry" />
        </mxCell>
        <mxCell id="_wDPgsUxaL8DNHtvxFUJ-140" value="" style="ellipse;whiteSpace=wrap;html=1;aspect=fixed;" vertex="1" parent="1">
          <mxGeometry x="434" y="1163" width="10" height="10" as="geometry" />
        </mxCell>
        <mxCell id="_wDPgsUxaL8DNHtvxFUJ-141" value="" style="ellipse;whiteSpace=wrap;html=1;aspect=fixed;" vertex="1" parent="1">
          <mxGeometry x="365" y="1173" width="10" height="10" as="geometry" />
        </mxCell>
        <mxCell id="_wDPgsUxaL8DNHtvxFUJ-142" value="" style="endArrow=none;html=1;rounded=0;exitX=1;exitY=0;exitDx=0;exitDy=0;entryX=0;entryY=0.5;entryDx=0;entryDy=0;" edge="1" parent="1" source="_wDPgsUxaL8DNHtvxFUJ-137" target="_wDPgsUxaL8DNHtvxFUJ-138">
          <mxGeometry width="50" height="50" relative="1" as="geometry">
            <mxPoint x="395" y="1153" as="sourcePoint" />
            <mxPoint x="445" y="1103" as="targetPoint" />
          </mxGeometry>
        </mxCell>
        <mxCell id="_wDPgsUxaL8DNHtvxFUJ-143" value="" style="endArrow=none;html=1;rounded=0;exitX=1;exitY=0;exitDx=0;exitDy=0;entryX=0;entryY=1;entryDx=0;entryDy=0;entryPerimeter=0;" edge="1" parent="1" target="_wDPgsUxaL8DNHtvxFUJ-134">
          <mxGeometry width="50" height="50" relative="1" as="geometry">
            <mxPoint x="345" y="1123" as="sourcePoint" />
            <mxPoint x="385" y="1107" as="targetPoint" />
          </mxGeometry>
        </mxCell>
        <mxCell id="_wDPgsUxaL8DNHtvxFUJ-144" value="" style="endArrow=none;html=1;rounded=0;entryX=0.5;entryY=1;entryDx=0;entryDy=0;" edge="1" parent="1" target="_wDPgsUxaL8DNHtvxFUJ-134">
          <mxGeometry width="50" height="50" relative="1" as="geometry">
            <mxPoint x="369" y="1173" as="sourcePoint" />
            <mxPoint x="419" y="1123" as="targetPoint" />
          </mxGeometry>
        </mxCell>
        <mxCell id="_wDPgsUxaL8DNHtvxFUJ-145" value="" style="endArrow=none;html=1;rounded=0;entryX=0.5;entryY=0;entryDx=0;entryDy=0;" edge="1" parent="1">
          <mxGeometry width="50" height="50" relative="1" as="geometry">
            <mxPoint x="380" y="1103" as="sourcePoint" />
            <mxPoint x="440" y="1163" as="targetPoint" />
          </mxGeometry>
        </mxCell>
        <mxCell id="_wDPgsUxaL8DNHtvxFUJ-146" value="" style="endArrow=none;html=1;rounded=0;exitX=0.5;exitY=1;exitDx=0;exitDy=0;entryX=0;entryY=0.5;entryDx=0;entryDy=0;" edge="1" parent="1" source="_wDPgsUxaL8DNHtvxFUJ-134" target="_wDPgsUxaL8DNHtvxFUJ-138">
          <mxGeometry width="50" height="50" relative="1" as="geometry">
            <mxPoint x="395" y="1153" as="sourcePoint" />
            <mxPoint x="445" y="1103" as="targetPoint" />
          </mxGeometry>
        </mxCell>
        <mxCell id="_wDPgsUxaL8DNHtvxFUJ-147" value="E" style="text;html=1;strokeColor=none;fillColor=none;align=center;verticalAlign=middle;whiteSpace=wrap;rounded=0;fontStyle=1" vertex="1" parent="1">
          <mxGeometry x="444" y="800" width="60" height="30" as="geometry" />
        </mxCell>
        <mxCell id="_wDPgsUxaL8DNHtvxFUJ-148" value="&lt;font face=&quot;Times New Roman&quot;&gt;D(D_id, A_id, L)&lt;/font&gt;" style="text;html=1;strokeColor=none;fillColor=none;align=center;verticalAlign=middle;whiteSpace=wrap;rounded=0;fontStyle=1" vertex="1" parent="1">
          <mxGeometry x="120" y="840" width="60" height="30" as="geometry" />
        </mxCell>
        <mxCell id="Nj45rokdd_-6qbST5xUJ-3" value="" style="sketch=0;outlineConnect=0;fontColor=#232F3E;gradientColor=none;fillColor=#232F3D;strokeColor=none;dashed=0;verticalLabelPosition=bottom;verticalAlign=top;align=center;html=1;fontSize=12;fontStyle=0;aspect=fixed;pointerEvents=1;shape=mxgraph.aws4.documents;" vertex="1" parent="1">
          <mxGeometry x="404.22" y="1248" width="67.28" height="82" as="geometry" />
        </mxCell>
        <mxCell id="7q0LYx8Xfr6DuWd-xTaB-2" value="" style="edgeStyle=elbowEdgeStyle;elbow=horizontal;endArrow=classic;html=1;curved=0;rounded=0;endSize=8;startSize=8;entryX=0.5;entryY=1;entryDx=0;entryDy=0;exitX=0;exitY=0.5;exitDx=0;exitDy=0;" edge="1" parent="1" source="_wDPgsUxaL8DNHtvxFUJ-1" target="_wDPgsUxaL8DNHtvxFUJ-82">
          <mxGeometry width="50" height="50" relative="1" as="geometry">
            <mxPoint x="40" y="1087" as="sourcePoint" />
            <mxPoint x="265" y="850" as="targetPoint" />
            <Array as="points">
              <mxPoint x="120" y="970" />
            </Array>
          </mxGeometry>
        </mxCell>
        <mxCell id="_JSEgbu3cQzh7o1tyAaN-1" value="&lt;b&gt;&lt;font face=&quot;Times New Roman&quot;&gt;G(n,c)&lt;/font&gt;&lt;/b&gt;" style="text;html=1;strokeColor=none;fillColor=none;align=center;verticalAlign=middle;whiteSpace=wrap;rounded=0;" vertex="1" parent="1">
          <mxGeometry x="455" y="1193" width="80" height="30" as="geometry" />
        </mxCell>
        <mxCell id="zTZN5UsoxUl76Bf90Q84-1" value="&lt;b&gt;&lt;font face=&quot;Times New Roman&quot;&gt;G_E(D_id, A_id, G_Embd)&lt;/font&gt;&lt;/b&gt;" style="rounded=1;whiteSpace=wrap;html=1;fillColor=#b0e3e6;strokeColor=#0e8088;arcSize=50;" vertex="1" parent="1">
          <mxGeometry x="440" y="722" width="130" height="30" as="geometry" />
        </mxCell>
        <mxCell id="gKqXiy5peup9p6Y5zYTN-40" value="" style="endArrow=classic;html=1;rounded=0;entryX=0.463;entryY=0.984;entryDx=0;entryDy=0;entryPerimeter=0;" edge="1" parent="1" target="_wDPgsUxaL8DNHtvxFUJ-2">
          <mxGeometry width="50" height="50" relative="1" as="geometry">
            <mxPoint x="430" y="1230" as="sourcePoint" />
            <mxPoint x="410" y="1190" as="targetPoint" />
            <Array as="points">
              <mxPoint x="420" y="1230" />
            </Array>
          </mxGeometry>
        </mxCell>
        <mxCell id="gKqXiy5peup9p6Y5zYTN-45" value="" style="endArrow=classic;html=1;rounded=0;exitX=0.458;exitY=0.016;exitDx=0;exitDy=0;exitPerimeter=0;" edge="1" parent="1" source="_wDPgsUxaL8DNHtvxFUJ-2" target="_wDPgsUxaL8DNHtvxFUJ-42">
          <mxGeometry width="50" height="50" relative="1" as="geometry">
            <mxPoint x="380" y="1070" as="sourcePoint" />
            <mxPoint x="430" y="1020" as="targetPoint" />
          </mxGeometry>
        </mxCell>
        <mxCell id="gKqXiy5peup9p6Y5zYTN-47" value="&lt;font face=&quot;Times New Roman&quot;&gt;Aggregation&lt;/font&gt;" style="rounded=0;whiteSpace=wrap;html=1;fillColor=#b1ddf0;strokeColor=#10739e;fontStyle=1" vertex="1" parent="1">
          <mxGeometry x="352" y="610" width="134" height="40" as="geometry" />
        </mxCell>
        <mxCell id="gKqXiy5peup9p6Y5zYTN-56" value="" style="endArrow=classic;html=1;rounded=0;exitX=0.967;exitY=-0.1;exitDx=0;exitDy=0;exitPerimeter=0;" edge="1" parent="1" source="_wDPgsUxaL8DNHtvxFUJ-57">
          <mxGeometry width="50" height="50" relative="1" as="geometry">
            <mxPoint x="410" y="750" as="sourcePoint" />
            <mxPoint x="409" y="650" as="targetPoint" />
          </mxGeometry>
        </mxCell>
        <mxCell id="gKqXiy5peup9p6Y5zYTN-67" value="" style="endArrow=classic;html=1;rounded=0;entryX=1;entryY=0.5;entryDx=0;entryDy=0;" edge="1" parent="1" target="_wDPgsUxaL8DNHtvxFUJ-83">
          <mxGeometry width="50" height="50" relative="1" as="geometry">
            <mxPoint x="410" y="543" as="sourcePoint" />
            <mxPoint x="370" y="540" as="targetPoint" />
          </mxGeometry>
        </mxCell>
        <mxCell id="gKqXiy5peup9p6Y5zYTN-71" value="" style="endArrow=none;html=1;rounded=0;exitX=1;exitY=0.5;exitDx=0;exitDy=0;" edge="1" parent="1" source="_wDPgsUxaL8DNHtvxFUJ-1">
          <mxGeometry width="50" height="50" relative="1" as="geometry">
            <mxPoint x="500" y="1300" as="sourcePoint" />
            <mxPoint x="720" y="1280" as="targetPoint" />
          </mxGeometry>
        </mxCell>
        <mxCell id="gKqXiy5peup9p6Y5zYTN-72" value="" style="endArrow=none;html=1;rounded=0;" edge="1" parent="1" source="gKqXiy5peup9p6Y5zYTN-73">
          <mxGeometry width="50" height="50" relative="1" as="geometry">
            <mxPoint x="720" y="1280" as="sourcePoint" />
            <mxPoint x="720" y="720" as="targetPoint" />
          </mxGeometry>
        </mxCell>
        <mxCell id="gKqXiy5peup9p6Y5zYTN-78" value="" style="shape=table;startSize=0;container=1;collapsible=0;childLayout=tableLayout;fontSize=16;fontStyle=1;fillColor=#b1ddf0;strokeColor=#10739e;" vertex="1" parent="1">
          <mxGeometry x="560" y="610" width="181" height="40" as="geometry" />
        </mxCell>
        <mxCell id="gKqXiy5peup9p6Y5zYTN-79" value="" style="shape=tableRow;horizontal=0;startSize=0;swimlaneHead=0;swimlaneBody=0;strokeColor=inherit;top=0;left=0;bottom=0;right=0;collapsible=0;dropTarget=0;fillColor=none;points=[[0,0.5],[1,0.5]];portConstraint=eastwest;fontSize=16;" vertex="1" parent="gKqXiy5peup9p6Y5zYTN-78">
          <mxGeometry width="181" height="40" as="geometry" />
        </mxCell>
        <mxCell id="gKqXiy5peup9p6Y5zYTN-80" value="V1" style="shape=partialRectangle;html=1;whiteSpace=wrap;connectable=0;strokeColor=inherit;overflow=hidden;fillColor=none;top=0;left=0;bottom=0;right=0;pointerEvents=1;fontSize=16;fontStyle=1" vertex="1" parent="gKqXiy5peup9p6Y5zYTN-79">
          <mxGeometry width="60" height="40" as="geometry">
            <mxRectangle width="60" height="40" as="alternateBounds" />
          </mxGeometry>
        </mxCell>
        <mxCell id="gKqXiy5peup9p6Y5zYTN-81" value="V2" style="shape=partialRectangle;html=1;whiteSpace=wrap;connectable=0;strokeColor=inherit;overflow=hidden;fillColor=none;top=0;left=0;bottom=0;right=0;pointerEvents=1;fontSize=16;fontStyle=1" vertex="1" parent="gKqXiy5peup9p6Y5zYTN-79">
          <mxGeometry x="60" width="61" height="40" as="geometry">
            <mxRectangle width="61" height="40" as="alternateBounds" />
          </mxGeometry>
        </mxCell>
        <mxCell id="gKqXiy5peup9p6Y5zYTN-82" value="V3" style="shape=partialRectangle;html=1;whiteSpace=wrap;connectable=0;strokeColor=inherit;overflow=hidden;fillColor=none;top=0;left=0;bottom=0;right=0;pointerEvents=1;fontSize=16;fontStyle=1" vertex="1" parent="gKqXiy5peup9p6Y5zYTN-79">
          <mxGeometry x="121" width="60" height="40" as="geometry">
            <mxRectangle width="60" height="40" as="alternateBounds" />
          </mxGeometry>
        </mxCell>
        <mxCell id="gKqXiy5peup9p6Y5zYTN-83" value="" style="shape=table;startSize=0;container=1;collapsible=0;childLayout=tableLayout;fontSize=16;fontStyle=1;fillColor=#b1ddf0;strokeColor=#10739e;" vertex="1" parent="1">
          <mxGeometry x="740" y="610" width="181" height="40" as="geometry" />
        </mxCell>
        <mxCell id="gKqXiy5peup9p6Y5zYTN-84" value="" style="shape=tableRow;horizontal=0;startSize=0;swimlaneHead=0;swimlaneBody=0;strokeColor=inherit;top=0;left=0;bottom=0;right=0;collapsible=0;dropTarget=0;fillColor=none;points=[[0,0.5],[1,0.5]];portConstraint=eastwest;fontSize=16;" vertex="1" parent="gKqXiy5peup9p6Y5zYTN-83">
          <mxGeometry width="181" height="40" as="geometry" />
        </mxCell>
        <mxCell id="gKqXiy5peup9p6Y5zYTN-85" value="V4" style="shape=partialRectangle;html=1;whiteSpace=wrap;connectable=0;strokeColor=inherit;overflow=hidden;fillColor=none;top=0;left=0;bottom=0;right=0;pointerEvents=1;fontSize=16;fontStyle=1" vertex="1" parent="gKqXiy5peup9p6Y5zYTN-84">
          <mxGeometry width="56" height="40" as="geometry">
            <mxRectangle width="56" height="40" as="alternateBounds" />
          </mxGeometry>
        </mxCell>
        <mxCell id="gKqXiy5peup9p6Y5zYTN-86" value="............" style="shape=partialRectangle;html=1;whiteSpace=wrap;connectable=0;strokeColor=inherit;overflow=hidden;fillColor=none;top=0;left=0;bottom=0;right=0;pointerEvents=1;fontSize=16;" vertex="1" parent="gKqXiy5peup9p6Y5zYTN-84">
          <mxGeometry x="56" width="65" height="40" as="geometry">
            <mxRectangle width="65" height="40" as="alternateBounds" />
          </mxGeometry>
        </mxCell>
        <mxCell id="gKqXiy5peup9p6Y5zYTN-87" value="&lt;font face=&quot;Times New Roman&quot;&gt;V512&lt;/font&gt;" style="shape=partialRectangle;html=1;whiteSpace=wrap;connectable=0;strokeColor=inherit;overflow=hidden;fillColor=none;top=0;left=0;bottom=0;right=0;pointerEvents=1;fontSize=16;fontStyle=1" vertex="1" parent="gKqXiy5peup9p6Y5zYTN-84">
          <mxGeometry x="121" width="60" height="40" as="geometry">
            <mxRectangle width="60" height="40" as="alternateBounds" />
          </mxGeometry>
        </mxCell>
        <mxCell id="gKqXiy5peup9p6Y5zYTN-88" value="" style="endArrow=none;html=1;rounded=0;" edge="1" parent="1" target="gKqXiy5peup9p6Y5zYTN-73">
          <mxGeometry width="50" height="50" relative="1" as="geometry">
            <mxPoint x="720" y="1280" as="sourcePoint" />
            <mxPoint x="720" y="720" as="targetPoint" />
          </mxGeometry>
        </mxCell>
        <mxCell id="gKqXiy5peup9p6Y5zYTN-73" value="&lt;font style=&quot;font-size: 12px;&quot; face=&quot;Times New Roman&quot;&gt;bert-base-uncased&lt;/font&gt;" style="rounded=0;whiteSpace=wrap;html=1;fillColor=#b1ddf0;strokeColor=#10739e;fontStyle=1" vertex="1" parent="1">
          <mxGeometry x="620" y="720" width="200" height="30" as="geometry" />
        </mxCell>
        <mxCell id="gKqXiy5peup9p6Y5zYTN-90" value="" style="endArrow=classic;html=1;rounded=0;exitX=0.5;exitY=0;exitDx=0;exitDy=0;" edge="1" parent="1" source="gKqXiy5peup9p6Y5zYTN-73">
          <mxGeometry width="50" height="50" relative="1" as="geometry">
            <mxPoint x="720" y="710" as="sourcePoint" />
            <mxPoint x="720" y="654" as="targetPoint" />
            <Array as="points">
              <mxPoint x="720" y="654" />
            </Array>
          </mxGeometry>
        </mxCell>
        <mxCell id="gKqXiy5peup9p6Y5zYTN-91" value="" style="endArrow=classic;html=1;rounded=0;entryX=1;entryY=0.5;entryDx=0;entryDy=0;" edge="1" parent="1" source="gKqXiy5peup9p6Y5zYTN-79" target="gKqXiy5peup9p6Y5zYTN-47">
          <mxGeometry width="50" height="50" relative="1" as="geometry">
            <mxPoint x="530" y="670" as="sourcePoint" />
            <mxPoint x="580" y="620" as="targetPoint" />
          </mxGeometry>
        </mxCell>
        <mxCell id="gKqXiy5peup9p6Y5zYTN-92" value="&lt;font face=&quot;Times New Roman&quot;&gt;Text&lt;/font&gt;" style="rounded=0;whiteSpace=wrap;html=1;fillColor=#b1ddf0;strokeColor=#10739e;fontStyle=1" vertex="1" parent="1">
          <mxGeometry x="653" y="910" width="134" height="40" as="geometry" />
        </mxCell>
        <mxCell id="gKqXiy5peup9p6Y5zYTN-94" value="&lt;b&gt;&lt;font face=&quot;Times New Roman&quot;&gt;T_E(D_id, A_id, T_Embd)&lt;/font&gt;&lt;/b&gt;" style="rounded=1;whiteSpace=wrap;html=1;fillColor=#b0e3e6;strokeColor=#0e8088;arcSize=50;" vertex="1" parent="1">
          <mxGeometry x="750" y="653" width="130" height="30" as="geometry" />
        </mxCell>
        <mxCell id="gKqXiy5peup9p6Y5zYTN-96" value="&lt;b&gt;&lt;font face=&quot;Times New Roman&quot;&gt;M(D_id, A_id, label, Embd)&lt;/font&gt;&lt;/b&gt;" style="rounded=1;whiteSpace=wrap;html=1;fillColor=#b0e3e6;strokeColor=#0e8088;arcSize=50;" vertex="1" parent="1">
          <mxGeometry x="404" y="469" width="136" height="37" as="geometry" />
        </mxCell>
        <mxCell id="hiY1fiGg45ZoWTmRtjc3-2" value="" style="whiteSpace=wrap;html=1;" vertex="1" parent="1">
          <mxGeometry x="229" y="340" width="220" height="30" as="geometry" />
        </mxCell>
        <mxCell id="hiY1fiGg45ZoWTmRtjc3-5" value="" style="whiteSpace=wrap;html=1;" vertex="1" parent="1">
          <mxGeometry x="230" y="390" width="220" height="30" as="geometry" />
        </mxCell>
        <mxCell id="hiY1fiGg45ZoWTmRtjc3-6" value="" style="whiteSpace=wrap;html=1;" vertex="1" parent="1">
          <mxGeometry x="229" y="290" width="220" height="30" as="geometry" />
        </mxCell>
        <mxCell id="hiY1fiGg45ZoWTmRtjc3-8" value="" style="whiteSpace=wrap;html=1;" vertex="1" parent="1">
          <mxGeometry x="230" y="240" width="220" height="30" as="geometry" />
        </mxCell>
        <mxCell id="hiY1fiGg45ZoWTmRtjc3-9" value="&lt;b&gt;MLP Classifier&lt;/b&gt;" style="text;strokeColor=none;align=center;fillColor=none;html=1;verticalAlign=middle;whiteSpace=wrap;rounded=0;" vertex="1" parent="1">
          <mxGeometry x="285" y="420" width="100" height="30" as="geometry" />
        </mxCell>
        <mxCell id="hiY1fiGg45ZoWTmRtjc3-10" value="Input Layer" style="text;strokeColor=none;align=center;fillColor=none;html=1;verticalAlign=middle;whiteSpace=wrap;rounded=0;" vertex="1" parent="1">
          <mxGeometry x="290" y="390" width="90" height="30" as="geometry" />
        </mxCell>
        <mxCell id="hiY1fiGg45ZoWTmRtjc3-12" value="Dense Layer 1" style="text;strokeColor=none;align=center;fillColor=none;html=1;verticalAlign=middle;whiteSpace=wrap;rounded=0;" vertex="1" parent="1">
          <mxGeometry x="280" y="340" width="110" height="30" as="geometry" />
        </mxCell>
        <mxCell id="hiY1fiGg45ZoWTmRtjc3-14" value="Dense Layer 2" style="text;strokeColor=none;align=center;fillColor=none;html=1;verticalAlign=middle;whiteSpace=wrap;rounded=0;" vertex="1" parent="1">
          <mxGeometry x="275" y="290" width="120" height="30" as="geometry" />
        </mxCell>
        <mxCell id="hiY1fiGg45ZoWTmRtjc3-15" value="Output Layer" style="text;strokeColor=none;align=center;fillColor=none;html=1;verticalAlign=middle;whiteSpace=wrap;rounded=0;" vertex="1" parent="1">
          <mxGeometry x="291" y="240" width="86" height="30" as="geometry" />
        </mxCell>
        <mxCell id="hiY1fiGg45ZoWTmRtjc3-20" value="" style="endArrow=classic;html=1;rounded=0;exitX=0.5;exitY=0;exitDx=0;exitDy=0;entryX=0.5;entryY=1;entryDx=0;entryDy=0;" edge="1" parent="1" source="hiY1fiGg45ZoWTmRtjc3-10" target="hiY1fiGg45ZoWTmRtjc3-12">
          <mxGeometry width="50" height="50" relative="1" as="geometry">
            <mxPoint x="420" y="390" as="sourcePoint" />
            <mxPoint x="470" y="340" as="targetPoint" />
          </mxGeometry>
        </mxCell>
        <mxCell id="hiY1fiGg45ZoWTmRtjc3-21" value="" style="endArrow=classic;html=1;rounded=0;exitX=0.5;exitY=0;exitDx=0;exitDy=0;entryX=0.5;entryY=1;entryDx=0;entryDy=0;" edge="1" parent="1" source="hiY1fiGg45ZoWTmRtjc3-12" target="hiY1fiGg45ZoWTmRtjc3-14">
          <mxGeometry width="50" height="50" relative="1" as="geometry">
            <mxPoint x="420" y="390" as="sourcePoint" />
            <mxPoint x="470" y="340" as="targetPoint" />
            <Array as="points" />
          </mxGeometry>
        </mxCell>
        <mxCell id="hiY1fiGg45ZoWTmRtjc3-22" value="" style="endArrow=classic;html=1;rounded=0;exitX=0.5;exitY=0;exitDx=0;exitDy=0;entryX=0.5;entryY=1;entryDx=0;entryDy=0;" edge="1" parent="1" source="hiY1fiGg45ZoWTmRtjc3-14" target="hiY1fiGg45ZoWTmRtjc3-15">
          <mxGeometry width="50" height="50" relative="1" as="geometry">
            <mxPoint x="420" y="390" as="sourcePoint" />
            <mxPoint x="470" y="340" as="targetPoint" />
          </mxGeometry>
        </mxCell>
        <mxCell id="hiY1fiGg45ZoWTmRtjc3-23" value="&lt;b&gt;&lt;font face=&quot;Times New Roman&quot;&gt;combined(D_id, A_id, Embd)&lt;/font&gt;&lt;/b&gt;" style="rounded=1;whiteSpace=wrap;html=1;fillColor=#b0e3e6;strokeColor=#0e8088;arcSize=50;" vertex="1" parent="1">
          <mxGeometry x="414" y="570" width="126" height="35" as="geometry" />
        </mxCell>
        <mxCell id="hiY1fiGg45ZoWTmRtjc3-25" value="" style="endArrow=none;html=1;rounded=0;exitX=0.425;exitY=-0.075;exitDx=0;exitDy=0;exitPerimeter=0;" edge="1" parent="1" source="gKqXiy5peup9p6Y5zYTN-47">
          <mxGeometry width="50" height="50" relative="1" as="geometry">
            <mxPoint x="480" y="690" as="sourcePoint" />
            <mxPoint x="410" y="540" as="targetPoint" />
          </mxGeometry>
        </mxCell>
        <mxCell id="hiY1fiGg45ZoWTmRtjc3-28" value="" style="endArrow=classic;html=1;rounded=0;exitX=0.45;exitY=0;exitDx=0;exitDy=0;exitPerimeter=0;" edge="1" parent="1" source="_wDPgsUxaL8DNHtvxFUJ-42">
          <mxGeometry width="50" height="50" relative="1" as="geometry">
            <mxPoint x="480" y="840" as="sourcePoint" />
            <mxPoint x="400" y="800" as="targetPoint" />
          </mxGeometry>
        </mxCell>
      </root>
    </mxGraphModel>
  </diagram>
</mxfile>
